# xmcd
#
# Track frame offsets: 
#        150
#        18403
#        38283
#        56047
#        76249
#        92323
#        107872
#        133494
#        152549
#        177694
#        200070
#        219646
#        236941
#        263405
#        282830
#        301239
#
# Disc length: 4288 seconds
#
# Revision: 0
# Processed by: cddbd v1.5.2PL0 Copyright (c) Steve Scherf et al.
# Submitted via: ExactAudioCopyFreeDBPlugin 1.0
#
DISCID=db10be10
DTITLE=BILLIE HOLIDAY - Long Play Collection-6 Originals CD2
DYEAR=1900
DGENRE=Blues
TTITLE0=BILLIE HOLIDAY Music for torching -  It Had To Be You
TTITLE1=BILLIE HOLIDAY Music for torching - Come Rain Or Come Shine
TTITLE2=BILLIE HOLIDAY Music for torching - I Don't Want To Cry Anymor
TTITLE2=e
TTITLE3=BILLIE HOLIDAY Music for torching - (I Don't' Stand A) Ghost O
TTITLE3=f A Chance (With You)
TTITLE4=BILLIE HOLIDAY Music for torching - A Fine Romance
TTITLE5=BILLIE HOLIDAY Music for torching - Gone With The Wind
TTITLE6=BILLIE HOLIDAY Music for torching - I Get A Kick Out Of You
TTITLE7=BILLIE HOLIDAY Music for torching - Isn't This A Lovely Day
TTITLE8=BILLIE HOLIDAY Velvet mood - Prelude To A Kiss
TTITLE9=BILLIE HOLIDAY Velvet mood - When Your Lover Has Gone
TTITLE10=BILLIE HOLIDAY Velvet mood - Please Don't Talk About Me When 
TTITLE10=I'm Gone
TTITLE11=BILLIE HOLIDAY Velvet mood - Nice Work If You Can Get It
TTITLE12=BILLIE HOLIDAY Velvet mood - I Gotta Right To Sing The Blues
TTITLE13=BILLIE HOLIDAY Velvet mood - What's New
TTITLE14=BILLIE HOLIDAY Velvet mood - I Hadn't Anyone Till You
TTITLE15=BILLIE HOLIDAY Velvet mood - Everything I Have Is Yours
EXTD=
EXTT0=
EXTT1=
EXTT2=
EXTT3=
EXTT4=
EXTT5=
EXTT6=
EXTT7=
EXTT8=
EXTT9=
EXTT10=
EXTT11=
EXTT12=
EXTT13=
EXTT14=
EXTT15=
PLAYORDER=
